# xmcd
#
# Track frame offsets:
#	150
#	23676
#	40948
#	57053
#	79903
#	104671
#	129773
#	147236
#	171658
#	193566
#	214551
#	231821
#	250021
#
# Disc length: 3551 seconds
#
# Revision: 0
# Processed by: cddbd v1.5.2PL0 Copyright (c) Steve Scherf et al.
# Submitted via: EasyCDDAExtractor 4.5.0.2
#
DISCID=ad0ddd0d
DTITLE=Мадера Хард Блюз - Китайская Невеста
DYEAR=2002
DGENRE=Blues
TTITLE0=Напишу Блюз
TTITLE1=Бред
TTITLE2=Китайская Невеста
TTITLE3=Свобода
TTITLE4=Рыбка
TTITLE5=Солдат
TTITLE6=Мадера Хард Блюз
TTITLE7=Машина
TTITLE8=Посвящается Маше (Босса Нова)
TTITLE9=Это Не Рок-н-Ролл
TTITLE10=Покойник
TTITLE11=Харлей Дэвидсон
TTITLE12=Самый Главный Юбилей
EXTD=
EXTT0=
EXTT1=
EXTT2=
EXTT3=
EXTT4=
EXTT5=
EXTT6=
EXTT7=
EXTT8=
EXTT9=
EXTT10=
EXTT11=
EXTT12=
PLAYORDER=
